<svg id="Group_4" data-name="Group 4" xmlns="http://www.w3.org/2000/svg" width="264.312" height="59.347" viewBox="0 0 264.312 59.347">
  <g id="Group_1" data-name="Group 1" transform="translate(0 0.001)">
    <path id="Path_1" data-name="Path 1" d="M36.835,124.621s9.083,1.955,7.583-2.783c0,0-.947-2.452-1.285-3.573a8.65,8.65,0,0,1-.448-3.35c.061-1.507,2.906-5.076,6.256-5.026,3.35.068,6.458,2.744,6.52,5.2a12.8,12.8,0,0,1-1.838,5.741c-.227.336-1.734,4.35,4.628,4.522.111.053,12.893,0,14.84-1.121,0,.064,3.177-.549,1.729-4.288a5.8,5.8,0,0,1-1.229-4.018c.221-2.343,2.562-4.845,7.086-4.966s7.082,3.352,6.978,5.421a10.276,10.276,0,0,1-2.343,5.46s-2.179,3.789,2.957,3.18,5.961-1.176,8.422-.669c.061,0,2.621,10.268-.283,15.618a4.269,4.269,0,0,0-3.852-1.792,5.583,5.583,0,0,0-5.178,5.478c.157,2.674,1.282,5.072,5.806,4.684.834-.062,3.119-.165,3.951-.727.059-.05,2.849,6.251-.051,17.295,0,.117-8.21,4.577-12.385.061-.724-.671.219-2.514.558-3.455,0,0,3.8-7.541-3.743-8.263-3.843-.4-6.522,4.741-3.681,10.215a39.618,39.618,0,0,1-13.278,3c-7.088.341-10.54-.557-10.823-4.352a12.119,12.119,0,0,1,1.561-5.3c.4-.835,1.562-8.977-5.189-8.977,0,0-5.08-.057-5.08,7.42a8.6,8.6,0,0,0,1.909,4.012c1.55,1.731.05,7.579-6.705,7.579,0,0-7.256-.768-7.031-5.9.059-1.734,3.244-7.919,2.683-12.832-.283-1.789-1.064-2.4-3.97-1.789-1.216.286-8.361,1.629-8.751-3.289a12.14,12.14,0,0,1,3.4-9.774,2.451,2.451,0,0,1,3.743.227c.335.4,4.29,4.193,4.8-.772C35.108,131.556,35.213,127.309,36.835,124.621Z" transform="translate(-21.215 -107.637)" fill-rule="evenodd"/>
    <path id="Path_2" data-name="Path 2" d="M105.028,119.638a10.177,10.177,0,0,0,2.337-5.464c.121-2.073-2.447-5.527-6.97-5.416s-6.857,2.627-7.088,4.964a5.815,5.815,0,0,0,1.231,4.022,4.981,4.981,0,0,1,.38,1.706Z" transform="translate(-42.416 -107.294)" fill="#0064b6" fill-rule="evenodd"/>
    <path id="Path_3" data-name="Path 3" d="M59.707,119a2.375,2.375,0,0,1,.256-.819,12.667,12.667,0,0,0,1.842-5.75c-.053-2.451-3.18-5.129-6.519-5.183s-6.191,3.509-6.249,5.009a8.949,8.949,0,0,0,.438,3.354c.25.859.885,2.5,1.152,3.218Z" transform="translate(-29.045 -106.839)" fill="#dc000c" fill-rule="evenodd"/>
    <path id="Path_4" data-name="Path 4" d="M67.549,127.517c-3.226.131-6.1.131-6.162.1-5.285-.137-5.135-2.948-4.8-4.078l-9.219.085c.115.292.186.478.186.478,1.5,4.746-7.588,2.789-7.588,2.789a13.642,13.642,0,0,0-1.556,5.287H66.944A36.651,36.651,0,0,1,67.549,127.517Z" transform="translate(-25.838 -111.762)" fill="#ed6b00" fill-rule="evenodd"/>
    <path id="Path_5" data-name="Path 5" d="M113.2,132.274a33.846,33.846,0,0,0-.934-5.413c-2.451-.507-3.3.057-8.421.664s-2.96-3.176-2.96-3.176H90.909a3.211,3.211,0,0,1-3.194,2.8c-.7.121-7.43.578-7.43.578a35.452,35.452,0,0,0-.7,4.792C79.587,132.585,113.2,132.274,113.2,132.274Z" transform="translate(-38.274 -112.005)" fill="#41aae4" fill-rule="evenodd"/>
    <path id="Path_6" data-name="Path 6" d="M21.416,144.992a13.071,13.071,0,0,1,3.15-5.961,2.387,2.387,0,0,1,3.741.232c.334.408,4.3,4.351,4.8-.81,0-.47.016-1.447.126-2.608H61.846s-.545,7.8,4.732,5.651c1.059-.634,7.021-4.128,7.934,3.4C74.593,144.992,21.416,144.992,21.416,144.992Z" transform="translate(-20.703 -115.479)" fill="#ffec00" fill-rule="evenodd"/>
    <path id="Path_7" data-name="Path 7" d="M104.945,145.043a3.78,3.78,0,0,1,2.691-.824,4.313,4.313,0,0,1,3.847,1.78c1.481-2.727,1.535-6.721,1.231-9.984H79.144s-.714,5.877,3.984,5.877c2,0,1.2-1.744,4.785-1.664s3.977,3.206,4.048,4.583C92.04,145.043,104.945,145.043,104.945,145.043Z" transform="translate(-38.133 -115.53)" fill="#20992a" fill-rule="evenodd"/>
    <path id="Path_8" data-name="Path 8" d="M33.749,158.093c-.272-1.788-1.055-2.393-3.96-1.788-1.219.291-8.365,1.623-8.758-3.293a13.323,13.323,0,0,1,.237-3.948H74.461s-.154,7.552-5.039,7.783c-1.671.073-4.5-2.06-6.491-1.673-1.993.369-1.216,2.284-.915,2.736C62.088,157.841,33.749,158.093,33.749,158.093Z" transform="translate(-20.571 -119.472)" fill="#20992a" fill-rule="evenodd"/>
    <path id="Path_9" data-name="Path 9" d="M105.229,157.958c-1.709-.784-2.247-2.456-2.357-4.258a5.287,5.287,0,0,1,2.273-4.392H92.312s.067,7.686-5.572,7.769c-1.3,0-5.577-2.535-6.8-1.461a1.773,1.773,0,0,0-.3,2.366Z" transform="translate(-38.194 -119.546)" fill="#ffec00" fill-rule="evenodd"/>
    <path id="Path_10" data-name="Path 10" d="M48.109,170.106a6.45,6.45,0,0,1-.226-.96c0-4.76,2.043-6.471,3.542-7.079L38.729,162a20.534,20.534,0,0,1-1.265,8.118Z" transform="translate(-25.552 -123.381)" fill="#41aae4" fill-rule="evenodd"/>
    <path id="Path_11" data-name="Path 11" d="M65.989,170.347c.351-1.53.764-6.82-2.918-8.389H74.578s2.141,7.547,2.218,8.167C76.719,170.125,65.989,170.347,65.989,170.347Z" transform="translate(-33.288 -123.368)" fill="#41aae4" fill-rule="evenodd"/>
    <path id="Path_12" data-name="Path 12" d="M92.761,170.1a4.362,4.362,0,0,1,4.462-3.186c3.17.313,4.328,1.818,4.624,3.46l12.245-.331c.184-5.694-1.212-8.8-1.243-8.751-.841.549-3.136.65-3.963.715a7.35,7.35,0,0,1-3.053-.28H80s2.2,6.465,2.066,8.153C81.912,169.926,92.761,170.1,92.761,170.1Z" transform="translate(-38.404 -123.168)" fill="#ed6b00" fill-rule="evenodd"/>
    <path id="Path_13" data-name="Path 13" d="M47.577,173.948a7.979,7.979,0,0,0,1.59,2.816c1.555,1.74.054,7.592-6.692,7.592,0,0-7.25-.771-7.029-5.91a26.679,26.679,0,0,1,1.327-4.465h10.8Z" transform="translate(-24.941 -126.991)" fill="#0064b6" fill-rule="evenodd"/>
    <path id="Path_14" data-name="Path 14" d="M77.816,183.717c-.7.073-1.409.139-2.13.17-7.08.347-10.547-.577-10.821-4.5a12.966,12.966,0,0,1,1.564-5.508,1.719,1.719,0,0,0,.065-.193H77.359s1.172,8.008.591,10.038Z" transform="translate(-33.83 -126.911)" fill="#0064b6" fill-rule="evenodd"/>
    <path id="Path_15" data-name="Path 15" d="M93.685,173.634a9.489,9.489,0,0,0,.833,7.117,37.144,37.144,0,0,1-11.152,2.956s.134-8.633-.131-9.931C83.366,173.92,93.685,173.634,93.685,173.634Z" transform="translate(-39.38 -126.896)" fill="#dc000c" fill-rule="evenodd"/>
    <path id="Path_16" data-name="Path 16" d="M110.586,173.975a9.8,9.8,0,0,1-.907,4.741c-.345.994-1.282,2.9-.556,3.582,4.18,4.679,12.38.061,12.38-.055a40.868,40.868,0,0,0,1.288-8.587Z" transform="translate(-47.12 -126.902)" fill="#dc000c" fill-rule="evenodd"/>
    <path id="Path_17" data-name="Path 17" d="M95.182,162.147a.419.419,0,0,1-.137.243.409.409,0,0,1-.091.061,14.717,14.717,0,0,1-2.415,1.112,15.18,15.18,0,0,1-5.061,1,7.055,7.055,0,0,1-5.376-2.137c-.791-.767-.172-2.3.269-3.392.075-.188.146-.361.2-.5a.38.38,0,0,1,.018-.042h0c.009-.02,3.519-7-3.413-7.671h0a3.431,3.431,0,0,0-1.95.369A4.163,4.163,0,0,0,75.6,152.76a6.121,6.121,0,0,0-.811,2.546,9.178,9.178,0,0,0,1.1,5.132.411.411,0,0,1-.174.553l-.028.013a.4.4,0,0,1-.077.05,36.215,36.215,0,0,1-6.559,2.05,40.013,40.013,0,0,1-6.788.942h0c-3.594.175-6.281.03-8.123-.647a4.324,4.324,0,0,1-3.126-4.081.354.354,0,0,1,0-.054,12.783,12.783,0,0,1,1.6-5.456,7.616,7.616,0,0,0,.29-2.357,8.6,8.6,0,0,0-.545-3.159,4.32,4.32,0,0,0-2.157-2.389,5.585,5.585,0,0,0-2.412-.481h-.031c-.418.01-4.623.283-4.632,6.988a7.941,7.941,0,0,0,1.788,3.752.185.185,0,0,1,.022.026,3.085,3.085,0,0,1,.648,2.025,5.457,5.457,0,0,1-.5,2.207,6.309,6.309,0,0,1-1.558,2.115,8.172,8.172,0,0,1-5.607,1.9.447.447,0,0,1-.069-.006c-.452-.053-7.6-.974-7.368-6.332v-.013a14.384,14.384,0,0,1,.844-3.062c.9-2.673,2.186-6.48,1.831-9.682h0c-.117-.759-.323-1.26-.772-1.486a4.467,4.467,0,0,0-2.69.037h0a16.031,16.031,0,0,1-2.286.345,10.578,10.578,0,0,1-4.007-.348,3.97,3.97,0,0,1-2.853-2.912,4.849,4.849,0,0,1-.115-.745,12.828,12.828,0,0,1,.917-6.179,13.669,13.669,0,0,1,2.591-3.881h0a2.738,2.738,0,0,1,.423-.383,2.8,2.8,0,0,1,1.812-.521,2.87,2.87,0,0,1,1.751.721,2.753,2.753,0,0,1,.384.424,7.02,7.02,0,0,0,1.685,1.281,2.318,2.318,0,0,0,1.125.314.976.976,0,0,0,.8-.507,3.826,3.826,0,0,0,.456-1.616,24.937,24.937,0,0,1,.26-3.538,13.263,13.263,0,0,1,1.521-4.764.409.409,0,0,1,.454-.185c.438.091,8.348,1.694,7.095-2.27v0c-.107-.278-.962-2.513-1.285-3.57,0-.01-.006-.02-.008-.029a11.883,11.883,0,0,1-.367-1.556v-.013a9.99,9.99,0,0,1-.078-1.891,6.572,6.572,0,0,1,2.56-3.845,6.483,6.483,0,0,1,4.1-1.558,7.871,7.871,0,0,1,4.671,1.726,5.392,5.392,0,0,1,2.25,3.859,8.873,8.873,0,0,1-.478,2.822,15.332,15.332,0,0,1-1.436,3.165h0a2.488,2.488,0,0,0-.242,1.074,2.3,2.3,0,0,0,.185,1h0a2.254,2.254,0,0,0,.817.946,6.589,6.589,0,0,0,3.543.857.407.407,0,0,1,.192.053h0c.059.033,5.4-.03,9.684-.352a16.922,16.922,0,0,0,4.743-.758.407.407,0,0,1,.216-.061.427.427,0,0,1,.06,0c.031-.008.114-.036.253-.089a2.361,2.361,0,0,0,.679-.4c.574-.486,1.041-1.429.375-3.19a6.25,6.25,0,0,1-1.279-4.267v0h0a5.415,5.415,0,0,1,2.409-3.834,9.141,9.141,0,0,1,5.076-1.5c.253-.006.5,0,.731.011a7.584,7.584,0,0,1,4.861,2.059,5.426,5.426,0,0,1,1.8,3.538c0,.084,0,.164,0,.237v.013a8.351,8.351,0,0,1-.7,2.822,12.814,12.814,0,0,1-1.7,2.829c-.145.268-1.56,3.041,2.566,2.549,1.664-.2,2.852-.387,3.8-.537a11.213,11.213,0,0,1,4.754-.121.41.41,0,0,1,.315.3.452.452,0,0,1,.022.061,38.005,38.005,0,0,1,1.086,9.212,14.873,14.873,0,0,1-1.415,6.635.41.41,0,0,1-.719.006.435.435,0,0,1-.05-.057,3.71,3.71,0,0,0-1-.92,4.155,4.155,0,0,0-2.424-.593h0l-.094,0h-.007a5.136,5.136,0,0,0-3.327,1.641,4.659,4.659,0,0,0-1.373,3.3l0,.08v.009a4.958,4.958,0,0,0,1.154,3.226c.782.8,2.086,1.253,4.207,1.073h.015l.3-.022a10.074,10.074,0,0,0,3.459-.627l.024-.015h0l.008,0h0l.016-.008.013-.006h0a.409.409,0,0,1,.516.178.422.422,0,0,1,.045.128,1.619,1.619,0,0,1,.153.3c.1.262.23.651.367,1.161.67,2.51,1.494,8.037-.581,15.962ZM62.414,122.815c-.189.764-1.933,8.178,1.288,9.494a3.148,3.148,0,0,0,3.327-.532c.118-.077.241-.158.364-.237a4.207,4.207,0,0,1,2.591-.583,5.1,5.1,0,0,1,1.8.442,4.478,4.478,0,0,1,1.65,1.29,7.483,7.483,0,0,1,1.26,5.279v.011a6.5,6.5,0,0,1-.209,1.322,8.507,8.507,0,0,1-1.849,3.478,4.39,4.39,0,0,1-3.4,1.63,3.663,3.663,0,0,1-.767-.115c-.9-.233-1.775-.548-2.6-.844a21.728,21.728,0,0,0-2.173-.7c-.849-.2-1.459-.17-1.607.4a13.239,13.239,0,0,0,.632,3.572c.043.172.093.367.174.7h0l.039.153c.54,2.139,2.892,11.447,1.859,15.443,1.452-.175,2.833-.426,4.088-.707a38.329,38.329,0,0,0,6.1-1.861,9.854,9.854,0,0,1-1.007-5.219,6.949,6.949,0,0,1,.924-2.889,4.968,4.968,0,0,1,1.942-1.877,4.24,4.24,0,0,1,2.408-.455h0c7.915.768,4.277,8.419,4.077,8.829-.057.155-.125.322-.2.5-.357.882-.858,2.123-.454,2.5l.02.02a6.27,6.27,0,0,0,4.782,1.879,14.364,14.364,0,0,0,4.779-.946,14.993,14.993,0,0,0,2.159-.959c1.993-7.686,1.2-13.017.554-15.439-.123-.459-.24-.812-.331-1.052a13.538,13.538,0,0,1-3.429.548l-.29.021h-.01c-2.4.2-3.914-.349-4.862-1.32a5.714,5.714,0,0,1-1.384-3.744v-.01c0-.02,0-.055,0-.1a5.474,5.474,0,0,1,1.6-3.895,5.965,5.965,0,0,1,3.863-1.894h.013l.111,0h0a4.954,4.954,0,0,1,2.889.715,4.527,4.527,0,0,1,.89.726,15.1,15.1,0,0,0,1.049-5.708,37.4,37.4,0,0,0-1.012-8.806,10.953,10.953,0,0,0-4.219.175c-.973.154-2.2.348-3.829.543-5.945.709-3.373-3.771-3.366-3.783a.426.426,0,0,1,.057-.078,12.012,12.012,0,0,0,1.6-2.651,7.536,7.536,0,0,0,.633-2.547v-.012c0-.061,0-.119,0-.174a4.6,4.6,0,0,0-1.55-2.967,6.768,6.768,0,0,0-4.339-1.831c-.221-.013-.443-.017-.666-.011a8.336,8.336,0,0,0-4.628,1.35,4.606,4.606,0,0,0-2.063,3.244h0a5.358,5.358,0,0,0,1.135,3.716.417.417,0,0,1,.077.137c.861,2.229.2,3.482-.592,4.153a3.224,3.224,0,0,1-.916.539,2.383,2.383,0,0,1-.486.13,18.053,18.053,0,0,1-5.017.826c-1.115.084-2.311.144-3.478.186Zm1.5,40.293c1.217-3.507-1.225-13.174-1.773-15.339l-.038-.153h0c-.036-.142-.1-.411-.175-.694a13.091,13.091,0,0,1-.649-3.891h0a.329.329,0,0,1,.008-.043c.285-1.218,1.259-1.349,2.6-1.036a22.145,22.145,0,0,1,2.263.727c.821.294,1.694.607,2.531.823a2.85,2.85,0,0,0,.594.09,3.61,3.61,0,0,0,2.763-1.364A7.66,7.66,0,0,0,73.7,139.1a5.722,5.722,0,0,0,.184-1.154v-.022A6.716,6.716,0,0,0,72.8,133.2a3.661,3.661,0,0,0-1.35-1.056,4.263,4.263,0,0,0-1.512-.369,3.348,3.348,0,0,0-2.044.415h0a.319.319,0,0,1-.035.025c-.135.086-.259.167-.379.247a3.8,3.8,0,0,1-4.03.626.362.362,0,0,1-.051-.017c-3.626-1.479-2.186-8.677-1.83-10.226-2.438.072-4.616.07-5.456.05a.406.406,0,0,1-.174.035,7.347,7.347,0,0,1-3.985-1,3.059,3.059,0,0,1-1.1-1.292h0a3.106,3.106,0,0,1-.255-1.347,3.444,3.444,0,0,1,.383-1.516h0a14.387,14.387,0,0,0,1.332-2.955,8.08,8.08,0,0,0,.44-2.557,4.591,4.591,0,0,0-1.943-3.233,7.036,7.036,0,0,0-4.174-1.549,5.681,5.681,0,0,0-3.579,1.378,5.756,5.756,0,0,0-2.256,3.237,9.183,9.183,0,0,0,.071,1.741l0,.013a11.031,11.031,0,0,0,.341,1.45l.006.016c.318,1.035,1.161,3.238,1.267,3.515q.012.025.021.052c1.54,4.867-6.159,3.671-7.771,3.371a12.987,12.987,0,0,0-1.27,4.213,24.172,24.172,0,0,0-.251,3.429h0a.379.379,0,0,1,0,.04,4.652,4.652,0,0,1-.581,2,1.756,1.756,0,0,1-1.456.888,3.1,3.1,0,0,1-1.538-.4,8.049,8.049,0,0,1-1.922-1.467.331.331,0,0,1-.043-.05,2.013,2.013,0,0,0-.276-.307,2.048,2.048,0,0,0-1.248-.512,1.988,1.988,0,0,0-1.286.367,1.9,1.9,0,0,0-.295.264h0l0,0a12.865,12.865,0,0,0-2.443,3.654,12.017,12.017,0,0,0-.854,5.794,4.017,4.017,0,0,0,.1.621,3.2,3.2,0,0,0,2.307,2.322,9.8,9.8,0,0,0,3.69.31,15.1,15.1,0,0,0,2.161-.327h0l.011,0a5.112,5.112,0,0,1,3.235.031,2.5,2.5,0,0,1,1.214,2.1h0l0,.016c.382,3.383-.94,7.3-1.868,10.047a14.553,14.553,0,0,0-.8,2.835v.015c-.2,4.581,6.158,5.425,6.637,5.483a7.367,7.367,0,0,0,5.046-1.693,5.485,5.485,0,0,0,1.357-1.84,4.631,4.631,0,0,0,.424-1.874,2.29,2.29,0,0,0-.44-1.486l-.013-.014a8.827,8.827,0,0,1-1.991-4.182.406.406,0,0,1-.013-.1c0-7.5,4.938-7.812,5.441-7.825l.043,0a6.384,6.384,0,0,1,2.761.562,5.118,5.118,0,0,1,2.567,2.825,9.39,9.39,0,0,1,.606,3.464,8.346,8.346,0,0,1-.371,2.708h0l-.006.013a11.939,11.939,0,0,0-1.519,5.087v0a3.574,3.574,0,0,0,2.591,3.37c1.73.636,4.316.769,7.8.6h0c.566-.027,1.127-.068,1.678-.121Zm18.765-1.267h0Z" transform="translate(-20.395 -106.662)" fill-rule="evenodd"/>
    <path id="Path_18" data-name="Path 18" d="M42.312,124.118a.41.41,0,1,1,0-.821h8.565a.41.41,0,0,1,0,.821ZM83.9,158.891a.41.41,0,1,1,0-.821H96.16a.41.41,0,1,1,0,.821Zm-30.459-.106a.41.41,0,1,1,0-.821H74.682a.41.41,0,1,1,0,.821Zm-20.888,0a.41.41,0,0,1,0-.821H42.82a.41.41,0,0,1,0,.821Zm1.163-8.409a.41.41,0,1,1,0-.821H87.407a.41.41,0,0,1,0,.821ZM21.34,141.623a.41.41,0,1,1,0-.821h66.3a.41.41,0,1,1,0,.821Zm11.789-9.215a.41.41,0,1,1,0-.82H95.337a.41.41,0,1,1,0,.82Zm40.1-8.29a.41.41,0,1,1,0-.821H83.318a.41.41,0,1,1,0,.821Z" transform="translate(-20.556 -111.688)" fill-rule="evenodd"/>
  </g>
  <path id="Path_19" data-name="Path 19" d="M165.564,106.992c.552,0,.826.3.826.9,0,.5-.352.806-1.052.929q-2.432.269-6.45.5v1.586H166.8a.783.783,0,0,1,0,1.565H159.69a19.115,19.115,0,0,0,3.546,1.731,24.663,24.663,0,0,0,4.02,1.153.781.781,0,0,1,.7.784.89.89,0,0,1-.95.95,4.71,4.71,0,0,1-1.09-.126,25.11,25.11,0,0,1-7.027-3.338v2.269a.825.825,0,0,1-1.65,0v-2.308a21.752,21.752,0,0,1-3.669,2.019,35.016,35.016,0,0,1-3.727,1.277,2.845,2.845,0,0,1-.887.225.9.9,0,0,1-.949-.967.786.786,0,0,1,.7-.763,38.961,38.961,0,0,0,4.822-1.484,21.045,21.045,0,0,0,2.845-1.421h-7.213a.783.783,0,0,1,0-1.565h8.079V109.4q-4.7.248-6.595.246c-.714,0-1.073-.309-1.073-.925,0-.524.278-.784.827-.784q3.957-.043,7.358-.225,3.376-.148,7.808-.721Zm-13.1,10.179h11.293a1.294,1.294,0,0,1,1.484,1.442v5.937a1.294,1.294,0,0,1-1.484,1.442H152.459a1.293,1.293,0,0,1-1.484-1.442v-5.937a1.293,1.293,0,0,1,1.484-1.442Zm10.551,7.256c.383,0,.576-.207.576-.619v-1.526H152.625v1.526c0,.412.19.619.576.619Zm-10.386-3.711h10.962v-1.361c0-.412-.193-.619-.576-.619H153.2c-.387,0-.576.207-.576.619v1.361ZM170.6,107.154a.761.761,0,0,1,.516.229,13.645,13.645,0,0,1,1.875,1.709,1.155,1.155,0,0,1,.123.454q0,.823-.907.823a.782.782,0,0,1-.472-.183q-.907-.865-1.916-1.713a1.088,1.088,0,0,1-.165-.45c0-.581.317-.869.946-.869Zm-.577,4.949a.761.761,0,0,1,.517.225,15.148,15.148,0,0,1,2.04,1.854,1.306,1.306,0,0,1,.123.475c0,.549-.3.826-.907.826a.81.81,0,0,1-.475-.186,26.954,26.954,0,0,0-2.079-1.874,1.112,1.112,0,0,1-.165-.454q0-.865.946-.865Zm1.607,4.843a.8.8,0,0,1,.886.887,3.768,3.768,0,0,1-.123.78,36.62,36.62,0,0,1-1.361,4.5,14.4,14.4,0,0,1-1.112,2.388c-.151.207-.3.309-.433.309a.864.864,0,0,1-.988-.967,2.8,2.8,0,0,1,.144-.6,20.276,20.276,0,0,0,1.03-2.371,41.464,41.464,0,0,0,1.235-4.41.753.753,0,0,1,.721-.514Zm15.085-8.222h-2.8v-1.073a.823.823,0,0,0-1.646,0v1.073H178.31v-1.073a.825.825,0,0,0-1.65,0v1.073h-2.226a.742.742,0,1,0,0,1.484h2.226v2.307h-3.049a.742.742,0,1,0,0,1.484H176.5a8.84,8.84,0,0,1-.907,1.646,7.9,7.9,0,0,1-2.078,1.917c-.373.221-.56.468-.56.742q0,.97.907.971a.627.627,0,0,0,.246-.064,11.612,11.612,0,0,0,1.484-1.175v4.928a2.456,2.456,0,0,0,1.217,2.367,15.688,15.688,0,0,0,4.885.475,16.007,16.007,0,0,0,4.428-.348,1.709,1.709,0,0,0,1.157-1.3,4.881,4.881,0,0,0,.183-1.319c-.028-.686-.3-1.048-.823-1.09a.775.775,0,0,0-.823.823c0,.714-.106,1.129-.31,1.238a1.283,1.283,0,0,1-.826.246q-1.093.084-3.605.084a12.21,12.21,0,0,1-3.214-.289c-.4-.151-.6-.566-.6-1.238v-1.073h6.492a1.438,1.438,0,0,0,1.646-1.607v-2.205a12.711,12.711,0,0,0,1.59,1.052,3.428,3.428,0,0,0,.433.144c.685,0,1.03-.3,1.03-.886a.771.771,0,0,0-.454-.743,8.952,8.952,0,0,1-2.082-1.276,11.917,11.917,0,0,1-1.73-2.019h3.359a.742.742,0,0,0,0-1.484h-3.63v-2.307h2.8a.742.742,0,1,0,0-1.484Zm-3.626,11.251H177.9c-.429,0-.64-.232-.64-.7v-.992c0-.464.211-.7.64-.7h5.191c.44,0,.661.235.661.7v.992c0,.468-.221.7-.661.7Zm-5.831-3.957h-.123a8.9,8.9,0,0,0,.763-1.526,1.038,1.038,0,0,0,.162-.493h4.371a1.438,1.438,0,0,0,.45.76,7.509,7.509,0,0,0,.848,1.259Zm1.052-3.5v-2.307h3.957v2.307Zm22.387-3.587h-7.914c-.44,0-.657.236-.657.7v1.442h14.033q.475,0,.475-.516v-1.091c0-.3-.193-.482-.576-.538Zm-8.571,3.711v3.587q0,.661-.022,1.277h3.524V115.77H193.36a.784.784,0,0,1,0-1.568h2.268v-1.565Zm5.068,0V114.2h4.945v-1.565Zm6.513,0V114.2h3.584a.784.784,0,1,1,0,1.568h-3.584V117.5h4.2a.782.782,0,1,1,0,1.565h-7.668a9.111,9.111,0,0,0,1.629,2.286,3.782,3.782,0,0,0,.433.352,24.743,24.743,0,0,0,3.358-1.607,2.561,2.561,0,0,1,.619-.246q.928,0,.929.865a1.057,1.057,0,0,1-.373.784,31.676,31.676,0,0,1-2.986,1.235c.355.193.714.366,1.073.517a17.546,17.546,0,0,0,3.3.967c.648.109.967.411.967.907,0,.548-.327.823-.988.823a20.112,20.112,0,0,1-4.143-1.319,11.056,11.056,0,0,1-3.771-2.74,8.538,8.538,0,0,1-1.71-2.824h-2.163v5.009a20.589,20.589,0,0,0,3.3-.679c.549,0,.823.3.823.9,0,.5-.347.806-1.047.929a24.919,24.919,0,0,1-3.32.535,30.885,30.885,0,0,1-3.215.288c-.714,0-1.069-.306-1.069-.925,0-.524.274-.784.823-.784q1.092-.021,2.062-.1v-5.174h-2.722a26.324,26.324,0,0,1-.348,3.071,17.819,17.819,0,0,1-.886,3.155.788.788,0,0,1-.763.576q-.93-.042-.968-.865.68-2.289,1.031-4.083a27.451,27.451,0,0,0,.369-4.7v-7.255a1.439,1.439,0,0,1,1.65-1.608h14.507a1.44,1.44,0,0,1,1.65,1.608v2.061a1.44,1.44,0,0,1-1.65,1.607Zm-1.568,4.864V115.77h-4.945V117.5Zm11.881-10.759a.913.913,0,0,1,.907.907.86.86,0,0,1-.25.6,20.521,20.521,0,0,1-1.132,2.226,3.719,3.719,0,0,1-.454.679,27.648,27.648,0,0,0,4.02-.535c-.179-.317-.373-.647-.576-.988a.9.9,0,0,1-.289-.6.7.7,0,0,1,.781-.805,1.219,1.219,0,0,1,.576.186q.5.76.887,1.484a20.7,20.7,0,0,1,1.153,2.328.823.823,0,0,1,.144.454c0,.493-.274.743-.823.743a1.042,1.042,0,0,1-.658-.208c-.179-.426-.337-.8-.475-1.132a.77.77,0,0,1-.246.038q-3.629.68-6.925.992c-.562,0-.844-.338-.844-1.009a.752.752,0,0,1,.823-.826,3.885,3.885,0,0,0,.433-.022q.432-.639.784-1.255a31.379,31.379,0,0,0,1.358-2.884.96.96,0,0,1,.805-.373Zm-2.145,7.133h5.711q1.461,0,1.463,1.235v9.274c0,1.1-.662,1.65-1.981,1.65a11.455,11.455,0,0,1-2.473-.331.754.754,0,0,1-.534-.721c0-.576.218-.865.657-.865a2.043,2.043,0,0,1,.517.08,7.266,7.266,0,0,0,1.646.267c.345,0,.517-.309.517-.925v-1.629h-5.441v3.461a.825.825,0,1,1-1.65,0V115.109c0-.823.524-1.235,1.565-1.235Zm.084,6.552H217.4v-1.815h-5.441v1.815Zm0-3.3H217.4V116.1c0-.44-.165-.658-.5-.658h-4.449c-.33,0-.5.218-.5.658v1.031Zm9.313-9.975a.731.731,0,0,1,.826.826v1.752a16.616,16.616,0,0,0,2.719-.64,14.126,14.126,0,0,0,2.659-1.443.855.855,0,0,1,.967.967c0,.331-.225.619-.679.865a11.571,11.571,0,0,1-2.061,1.052,12.355,12.355,0,0,1-2.019.577,15.023,15.023,0,0,1-1.484.271h-.1V113.3q0,.966.327,1.172a3.525,3.525,0,0,0,1.649.271,24.149,24.149,0,0,0,2.7-.105.813.813,0,0,0,.619-.246c.151-.124.225-.584.225-1.382a.779.779,0,0,1,.824-.823c.524.042.8.4.826,1.094a6.658,6.658,0,0,1-.144,1.358,1.677,1.677,0,0,1-.929,1.318,10.254,10.254,0,0,1-3.545.352,8.246,8.246,0,0,1-3.359-.433,2.616,2.616,0,0,1-.844-2.247V107.98a.73.73,0,0,1,.824-.826Zm0,9.809a.731.731,0,0,1,.826.826v1.917a13.368,13.368,0,0,0,2.74-.7,12.9,12.9,0,0,0,2.68-1.463.892.892,0,0,1,1.01,1.01c0,.341-.243.643-.722.9a12.654,12.654,0,0,1-2.082,1.073,13.835,13.835,0,0,1-2.04.556,13.128,13.128,0,0,1-1.484.267h-.1v1.671c0,.647.095,1.038.288,1.175a2.8,2.8,0,0,0,1.443.267,27.309,27.309,0,0,0,2.884-.1.832.832,0,0,0,.662-.267c.165-.137.246-.619.246-1.442a.781.781,0,0,1,.824-.827c.524.043.8.4.826,1.094a6.151,6.151,0,0,1-.165,1.4,1.675,1.675,0,0,1-.967,1.361,11.355,11.355,0,0,1-3.732.352,7.4,7.4,0,0,1-3.173-.433,2.726,2.726,0,0,1-.784-2.247v-5.564a.73.73,0,0,1,.824-.826Zm28.263-9.19a.61.61,0,0,1,.678.7c0,.468-.225.7-.678.7h-4.928c-.038.44-.3.657-.78.657s-.756-.218-.784-.657H237.19a.693.693,0,0,1-.784.657h-.124a.783.783,0,0,1,.124.454v.081h2.638a.579.579,0,1,1,0,1.157h-2.638v.743h3.052a.577.577,0,1,1,0,1.154h-1.526V114c0,.327.123.493.373.493h1.319c.44,0,.657.165.657.5s-.218.5-.657.5h-1.65c-.851,0-1.28-.387-1.28-1.157v-.9h-2.2a3.018,3.018,0,0,1-.288,1.214,1.614,1.614,0,0,1-1.073.865,8.139,8.139,0,0,1-1.794.186.546.546,0,0,1-.618-.619.572.572,0,0,1,.6-.616,6.017,6.017,0,0,0,1.3-.144.837.837,0,0,0,.576-.433,1.318,1.318,0,0,0,.127-.454h-2.1a.577.577,0,0,1,0-1.154h3.711v-.743h-2.888a.579.579,0,0,1,0-1.157h2.888v-.081a.655.655,0,0,1,.742-.742h.06a1.106,1.106,0,0,1-.1-.369h-4.411a.7.7,0,0,1,0-1.4h4.411v-.288a.783.783,0,0,1,1.565,0v.288h5.852v-.288a.782.782,0,0,1,1.565,0v.288Zm-10.653,8.367H236.3V115.4a.647.647,0,0,0-.722-.742.656.656,0,0,0-.742.742v.742h-2.969a.577.577,0,0,0,0,1.154h2.969v.988q-1.667.127-3.545.165c-.44.029-.657.25-.657.662,0,.535.225.8.678.8q3.608-.264,7.583-.886a.6.6,0,0,0,.64-.658c0-.411-.186-.618-.556-.618q-1.256.247-2.68.39v-.844h2.578a.577.577,0,0,0,0-1.154Zm4.779-6.162c-.439,0-.678.193-.72.577-.015.235-.029.461-.043.682h-1.34a.7.7,0,1,0,0,1.4h1.2a8.792,8.792,0,0,1-.288,1.4c-.014.056-.028.112-.042.165-.176-.151-.369-.31-.577-.472a1.1,1.1,0,0,0-.493-.144.593.593,0,0,0-.661.679.7.7,0,0,0,.25.493c.313.264.63.538.946.826-.066.11-.137.218-.207.331a6.513,6.513,0,0,1-1.421,1.5.6.6,0,0,0-.39.6c0,.563.3.848.907.848a.5.5,0,0,0,.246-.126,6.082,6.082,0,0,0,1.688-1.544,3.38,3.38,0,0,0,.288-.433c.193.218.415.475.661.764a.967.967,0,0,0,.6.183c.482,0,.722-.218.722-.657a.84.84,0,0,0-.124-.433,11.945,11.945,0,0,0-1.154-1.26,3.865,3.865,0,0,0,.144-.39,16.829,16.829,0,0,0,.471-2.328h1.073q.412,0,.412.5v4.326q0,1.729,1.98,1.73a2.207,2.207,0,0,0,1.421-.31,1.929,1.929,0,0,0,.5-1.03,11.461,11.461,0,0,0,.144-2.163c0-.576-.25-.865-.742-.865s-.728.267-.742.805a6.637,6.637,0,0,1-.123,1.9.437.437,0,0,1-.454.267q-.5,0-.5-.928v-4.555a.944.944,0,0,0-1.069-1.069h-1.773c.015-.193.021-.38.021-.559,0-.465-.27-.7-.805-.7Zm1.565,9.707a.577.577,0,1,1,0,1.154h-9.644a.577.577,0,0,1,0-1.154Zm4.207,1.977a.659.659,0,0,1,0,1.319h-3.855q.454.248.823.454a19.523,19.523,0,0,1,2.392,1.484.842.842,0,0,1,.144.453c0,.5-.274.743-.823.743a1.035,1.035,0,0,1-.662-.207c-.562-.4-1.065-.729-1.505-.988a.639.639,0,0,1-.161.021q-7.049.743-13.439,1.051c-.482,0-.722-.288-.722-.865a.64.64,0,0,1,.7-.7c1.016-.014,2.008-.036,2.968-.064l1.175-1.382H231.3a.659.659,0,0,1,0-1.319Zm-5.441,2.124c-.123-.07-.257-.137-.394-.207a.776.776,0,0,1-.267-.535v-.063h-4.988l-1.111,1.3q3.624-.169,6.76-.5Zm11.033-16.879a.774.774,0,0,1,.886.865,1.739,1.739,0,0,1-.412.971,18.056,18.056,0,0,1-2.68,3.418,1.071,1.071,0,0,1-.577.187c-.576,0-.865-.267-.865-.805a.967.967,0,0,1,.2-.556,17.934,17.934,0,0,0,2.743-3.689.784.784,0,0,1,.7-.391Zm-.084,5.111a.775.775,0,0,0-.7.411,22.163,22.163,0,0,1-3.07,4.33.961.961,0,0,0-.2.556c0,.535.288.805.865.805a1.075,1.075,0,0,0,.576-.186c.124-.124.246-.253.369-.391v7.829a.825.825,0,1,0,1.65,0V115.44q.475-.722.988-1.586a1.662,1.662,0,0,0,.412-.971.774.774,0,0,0-.886-.865Zm8.389-.865h-2.554v-3.5a.825.825,0,0,0-1.65,0v3.5h-2.473a.783.783,0,1,0,0,1.565h2.473v12.738a.825.825,0,0,0,1.65,0V112.718h2.554a.783.783,0,1,0,0-1.565Zm-5.933,3.173c.52,0,.78.25.78.742q-.058,2.7-.267,4.576a24.4,24.4,0,0,1-.78,3.918,1.2,1.2,0,0,1-.826.412c-.591,0-.887-.281-.887-.848a1.361,1.361,0,0,1,.144-.411,19.38,19.38,0,0,0,.763-3.524q.206-1.688.289-4.122c0-.492.26-.742.784-.742Zm5.356.042a.692.692,0,0,1,.784.784v5.191c0,.331.179.5.535.5h1.073q.781,0,.781.824c0,.552-.26.826-.781.826h-1.4a1.586,1.586,0,0,1-1.773-1.814v-5.522a.694.694,0,0,1,.784-.784Zm-.369-7.375a1.237,1.237,0,0,1,.577.183,6.95,6.95,0,0,1,.535.784,10.233,10.233,0,0,1,.7,1.235.835.835,0,0,1,.123.436c0,.44-.246.657-.743.657A.941.941,0,0,1,263,110.1c-.246-.44-.454-.788-.616-1.052-.151-.218-.317-.44-.5-.657a.9.9,0,0,1-.288-.6.7.7,0,0,1,.784-.8Zm6.964.946a.782.782,0,1,1,0,1.565h-3.626a.782.782,0,1,1,0-1.565Zm.823,4.452a.783.783,0,1,1,0,1.565h-1.235v10.038q0,2.037-2.307,2.04a8.8,8.8,0,0,1-2.311-.415.867.867,0,0,1-.679-.865c.028-.535.281-.817.764-.844a2.016,2.016,0,0,1,.348.043,9.374,9.374,0,0,0,1.794.369.663.663,0,0,0,.742-.76v-9.6h-2.061a.783.783,0,0,1,0-1.565Zm11.343-5.73a1.13,1.13,0,0,1,.64.246,23.582,23.582,0,0,0,4.618,2.35,26.13,26.13,0,0,0,4.1,1.154.779.779,0,0,1,.7.784.885.885,0,0,1-.949.946,4.984,4.984,0,0,1-1.112-.123,27.565,27.565,0,0,1-4-1.484v.084a.618.618,0,0,1-.7.7h-6.76a.618.618,0,0,1-.7-.7v-.063a3.573,3.573,0,0,1-.373.165,34.349,34.349,0,0,1-3.771,1.238,3.023,3.023,0,0,1-.886.2.892.892,0,0,1-.946-.967.785.785,0,0,1,.7-.763,40.451,40.451,0,0,0,4.864-1.484,22.034,22.034,0,0,0,3.915-2.061,1.146,1.146,0,0,1,.657-.225Zm-2.821,3.257h5.564a21.021,21.021,0,0,1-2.082-1.2,1.817,1.817,0,0,0-.679-.331,1.09,1.09,0,0,0-.517.186,22.529,22.529,0,0,1-2.286,1.34Zm-4.266,2.388h14.012q1.482,0,1.484,1.362v2.8q0,1.361-1.484,1.362H274.425q-1.482,0-1.484-1.362v-2.8q0-1.362,1.484-1.362Zm13.355,4.122c.327,0,.492-.2.492-.619v-1.484c0-.412-.165-.615-.492-.615h-5.526v2.719h1.484a4.3,4.3,0,0,0,.373-.475,14.76,14.76,0,0,0,.967-1.628A.849.849,0,0,1,285.8,114a.9.9,0,0,1,.6.225.909.909,0,0,1,.229.6.893.893,0,0,1-.208.556,7.479,7.479,0,0,1-.742,1.009l-.042.043Zm-7.171,0V113.71h-5.526c-.327,0-.492.2-.492.615v1.484c0,.415.165.619.492.619H277.7c-.042-.029-.071-.05-.084-.06-.355-.429-.742-.848-1.154-1.259a1.161,1.161,0,0,1-.144-.412c0-.521.281-.784.844-.784a.7.7,0,0,1,.474.208,9.114,9.114,0,0,1,1.112,1.255.966.966,0,0,1,.123.433.621.621,0,0,1-.288.619Zm-4.864,2.637h11.374q1.483,0,1.484,1.362v3.956q0,1.362-1.484,1.362H275.744q-1.482,0-1.484-1.362v-3.956q0-1.362,1.484-1.362Zm10.717,5.276c.327,0,.492-.2.492-.619v-.742H275.909v.742c0,.415.166.619.493.619Zm-10.552-2.68h11.044v-.577c0-.411-.165-.616-.492-.616H276.4c-.327,0-.493.2-.493.616Z" transform="translate(-58.949 -106.661)" fill-rule="evenodd"/>
  <g id="Group_2" data-name="Group 2" transform="translate(89.057 43.632)">
    <path id="Path_20" data-name="Path 20" d="M151.511,176.34h4.117l-1.267-3.363q-.579-1.534-.861-2.518a15.486,15.486,0,0,1-.655,2.319l-1.334,3.562Zm-3.5,4.987,4.664-12.144H154.4l4.97,12.144h-1.831l-1.417-3.679h-5.078l-1.334,3.679Z" transform="translate(-148.006 -169.183)" fill-rule="evenodd"/>
    <path id="Path_21" data-name="Path 21" d="M165,180.064l1.475-.232a2.064,2.064,0,0,0,.692,1.359,2.411,2.411,0,0,0,1.586.472,2.334,2.334,0,0,0,1.524-.418,1.252,1.252,0,0,0,.5-.982.908.908,0,0,0-.44-.8,6.452,6.452,0,0,0-1.524-.505,13.937,13.937,0,0,1-2.274-.716,2.173,2.173,0,0,1-1.288-2.018,2.268,2.268,0,0,1,.269-1.089,2.421,2.421,0,0,1,.733-.833,3.079,3.079,0,0,1,.948-.435,4.518,4.518,0,0,1,1.288-.179,5.092,5.092,0,0,1,1.819.3,2.472,2.472,0,0,1,1.156.808,3.148,3.148,0,0,1,.514,1.362l-1.458.2a1.6,1.6,0,0,0-.576-1.06,2.1,2.1,0,0,0-1.346-.381,2.435,2.435,0,0,0-1.466.34.987.987,0,0,0-.439.795.824.824,0,0,0,.182.522,1.31,1.31,0,0,0,.572.4q.223.084,1.317.381a18.391,18.391,0,0,1,2.208.692,2.237,2.237,0,0,1,.981.783,2.184,2.184,0,0,1,.357,1.275,2.505,2.505,0,0,1-.435,1.4,2.81,2.81,0,0,1-1.255,1.019,4.559,4.559,0,0,1-1.856.361,4.137,4.137,0,0,1-2.614-.713A3.314,3.314,0,0,1,165,180.064Z" transform="translate(-153.142 -170.545)" fill-rule="evenodd"/>
    <path id="Path_22" data-name="Path 22" d="M177.16,180.064l1.475-.232a2.064,2.064,0,0,0,.692,1.359,2.412,2.412,0,0,0,1.587.472,2.332,2.332,0,0,0,1.523-.418,1.252,1.252,0,0,0,.5-.982.906.906,0,0,0-.44-.8,6.453,6.453,0,0,0-1.523-.505,13.927,13.927,0,0,1-2.274-.716,2.172,2.172,0,0,1-1.288-2.018,2.268,2.268,0,0,1,.269-1.089,2.421,2.421,0,0,1,.733-.833,3.071,3.071,0,0,1,.948-.435,4.519,4.519,0,0,1,1.288-.179,5.093,5.093,0,0,1,1.819.3,2.472,2.472,0,0,1,1.156.808,3.149,3.149,0,0,1,.514,1.362l-1.458.2a1.592,1.592,0,0,0-.576-1.06,2.1,2.1,0,0,0-1.346-.381,2.435,2.435,0,0,0-1.466.34.987.987,0,0,0-.439.795.824.824,0,0,0,.182.522,1.31,1.31,0,0,0,.572.4q.223.084,1.317.381a18.39,18.39,0,0,1,2.208.692,2.237,2.237,0,0,1,.981.783,2.178,2.178,0,0,1,.357,1.275,2.5,2.5,0,0,1-.435,1.4,2.806,2.806,0,0,1-1.255,1.019,4.559,4.559,0,0,1-1.856.361,4.137,4.137,0,0,1-2.614-.713A3.31,3.31,0,0,1,177.16,180.064Z" transform="translate(-156.814 -170.545)" fill-rule="evenodd"/>
    <path id="Path_23" data-name="Path 23" d="M190.907,178.292a3.744,3.744,0,0,0,.738,2.531,2.455,2.455,0,0,0,3.7,0,3.835,3.835,0,0,0,.737-2.576,3.638,3.638,0,0,0-.741-2.473,2.457,2.457,0,0,0-3.7,0,3.725,3.725,0,0,0-.738,2.526Zm-1.533,0a4.536,4.536,0,0,1,1.359-3.621,4.093,4.093,0,0,1,2.766-.977,3.946,3.946,0,0,1,2.965,1.189,4.516,4.516,0,0,1,1.152,3.284,5.818,5.818,0,0,1-.509,2.672,3.6,3.6,0,0,1-1.482,1.512,4.314,4.314,0,0,1-2.125.539,3.953,3.953,0,0,1-2.986-1.185A4.733,4.733,0,0,1,189.374,178.292Z" transform="translate(-160.504 -170.546)" fill-rule="evenodd"/>
    <path id="Path_24" data-name="Path 24" d="M209.234,179.468l1.466.19a3.8,3.8,0,0,1-1.23,2.373,3.582,3.582,0,0,1-2.431.858,3.777,3.777,0,0,1-2.9-1.181,4.787,4.787,0,0,1-1.1-3.384,6.113,6.113,0,0,1,.472-2.493,3.291,3.291,0,0,1,1.437-1.6,4.261,4.261,0,0,1,2.1-.535,3.652,3.652,0,0,1,2.345.724,3.33,3.33,0,0,1,1.168,2.059l-1.45.224a2.408,2.408,0,0,0-.733-1.334,1.9,1.9,0,0,0-1.272-.447,2.313,2.313,0,0,0-1.831.807,3.836,3.836,0,0,0-.7,2.556,3.96,3.96,0,0,0,.679,2.576,2.21,2.21,0,0,0,1.773.8,2.094,2.094,0,0,0,1.467-.538A2.676,2.676,0,0,0,209.234,179.468Z" transform="translate(-164.632 -170.546)" fill-rule="evenodd"/>
    <path id="Path_25" data-name="Path 25" d="M215.858,172.53h1.491v8.8h-1.491v-8.8Zm0-3.346h1.491V170.9h-1.491Z" transform="translate(-168.506 -169.183)" fill-rule="evenodd"/>
    <path id="Path_26" data-name="Path 26" d="M226.644,178.275a10.891,10.891,0,0,1-2.435.563,5.694,5.694,0,0,0-1.3.3,1.3,1.3,0,0,0-.588.485,1.32,1.32,0,0,0,.244,1.7,1.942,1.942,0,0,0,1.321.4,3.073,3.073,0,0,0,1.533-.377,2.319,2.319,0,0,0,.986-1.031,3.6,3.6,0,0,0,.24-1.491v-.546Zm.125,3.33a5.538,5.538,0,0,1-1.6.994,4.6,4.6,0,0,1-1.643.29,3.2,3.2,0,0,1-2.229-.708,2.337,2.337,0,0,1-.778-1.81,2.4,2.4,0,0,1,.293-1.18,2.441,2.441,0,0,1,.77-.858,3.63,3.63,0,0,1,1.073-.489,10.628,10.628,0,0,1,1.325-.224,13.582,13.582,0,0,0,2.659-.514c.006-.2.009-.334.009-.389a1.644,1.644,0,0,0-.423-1.283,2.5,2.5,0,0,0-1.7-.506,2.632,2.632,0,0,0-1.553.369,2.253,2.253,0,0,0-.742,1.3l-1.457-.2a3.606,3.606,0,0,1,.654-1.512,2.872,2.872,0,0,1,1.317-.886,5.873,5.873,0,0,1,2-.311,5.285,5.285,0,0,1,1.831.265,2.406,2.406,0,0,1,1.036.666,2.348,2.348,0,0,1,.464,1.015,8.434,8.434,0,0,1,.074,1.376V179a21.063,21.063,0,0,0,.1,2.63,3.319,3.319,0,0,0,.377,1.057h-1.558A3.168,3.168,0,0,1,226.769,181.605Z" transform="translate(-169.915 -170.546)" fill-rule="evenodd"/>
    <path id="Path_27" data-name="Path 27" d="M237.668,180.112l.215,1.317a5.556,5.556,0,0,1-1.126.133,2.543,2.543,0,0,1-1.259-.257,1.436,1.436,0,0,1-.63-.675,5.323,5.323,0,0,1-.183-1.761v-5.061h-1.093v-1.16h1.093V170.47l1.483-.895v3.073h1.5v1.16h-1.5v5.144a2.605,2.605,0,0,0,.078.82.625.625,0,0,0,.257.29,1,1,0,0,0,.51.107A4.9,4.9,0,0,0,237.668,180.112Z" transform="translate(-173.864 -169.301)" fill-rule="evenodd"/>
    <path id="Path_28" data-name="Path 28" d="M241.533,172.53h1.491v8.8h-1.491v-8.8Zm0-3.346h1.491V170.9h-1.491Z" transform="translate(-176.263 -169.183)" fill-rule="evenodd"/>
    <path id="Path_29" data-name="Path 29" d="M247.659,178.292a3.744,3.744,0,0,0,.737,2.531,2.455,2.455,0,0,0,3.7,0,3.835,3.835,0,0,0,.737-2.576,3.635,3.635,0,0,0-.742-2.473,2.457,2.457,0,0,0-3.7,0,3.725,3.725,0,0,0-.737,2.526Zm-1.533,0a4.535,4.535,0,0,1,1.359-3.621,4.1,4.1,0,0,1,2.767-.977,3.947,3.947,0,0,1,2.966,1.189,4.522,4.522,0,0,1,1.151,3.284,5.818,5.818,0,0,1-.51,2.672,3.6,3.6,0,0,1-1.482,1.512,4.311,4.311,0,0,1-2.124.539,3.955,3.955,0,0,1-2.987-1.185A4.732,4.732,0,0,1,246.126,178.292Z" transform="translate(-177.65 -170.546)" fill-rule="evenodd"/>
    <path id="Path_30" data-name="Path 30" d="M260.442,182.69v-8.8h1.342v1.251a3.163,3.163,0,0,1,2.8-1.449,3.662,3.662,0,0,1,1.462.286,2.3,2.3,0,0,1,1,.749,2.872,2.872,0,0,1,.464,1.1,8.543,8.543,0,0,1,.083,1.449v5.41H266.1v-5.351a4.025,4.025,0,0,0-.174-1.363,1.432,1.432,0,0,0-.618-.72,1.957,1.957,0,0,0-1.039-.27,2.414,2.414,0,0,0-1.645.605,2.983,2.983,0,0,0-.692,2.295v4.8Z" transform="translate(-181.976 -170.546)" fill-rule="evenodd"/>
    <path id="Path_31" data-name="Path 31" d="M281.06,181.327V169.183h1.607v4.987h6.313v-4.987h1.607v12.145H288.98V175.6h-6.313v5.724Z" transform="translate(-188.205 -169.183)" fill-rule="evenodd"/>
    <path id="Path_32" data-name="Path 32" d="M299.009,178.292a3.748,3.748,0,0,0,.737,2.531,2.455,2.455,0,0,0,3.7,0,3.832,3.832,0,0,0,.738-2.576,3.638,3.638,0,0,0-.742-2.473,2.457,2.457,0,0,0-3.7,0,3.728,3.728,0,0,0-.737,2.526Zm-1.532,0a4.535,4.535,0,0,1,1.359-3.621,4.093,4.093,0,0,1,2.766-.977,3.947,3.947,0,0,1,2.966,1.189,4.519,4.519,0,0,1,1.152,3.284,5.817,5.817,0,0,1-.51,2.672,3.6,3.6,0,0,1-1.482,1.512,4.317,4.317,0,0,1-2.125.539,3.955,3.955,0,0,1-2.987-1.185A4.732,4.732,0,0,1,297.477,178.292Z" transform="translate(-193.165 -170.546)" fill-rule="evenodd"/>
    <path id="Path_33" data-name="Path 33" d="M311.793,182.69v-8.8h1.342v1.251a3.163,3.163,0,0,1,2.8-1.449,3.659,3.659,0,0,1,1.461.286,2.3,2.3,0,0,1,1,.749,2.884,2.884,0,0,1,.464,1.1,8.646,8.646,0,0,1,.082,1.449v5.41h-1.491v-5.351a4,4,0,0,0-.174-1.363,1.425,1.425,0,0,0-.618-.72,1.955,1.955,0,0,0-1.039-.27,2.417,2.417,0,0,0-1.645.605,2.983,2.983,0,0,0-.691,2.295v4.8Z" transform="translate(-197.49 -170.546)" fill-rule="evenodd"/>
    <path id="Path_34" data-name="Path 34" d="M326.026,178.134a3.817,3.817,0,0,0,.688,2.527,2.267,2.267,0,0,0,3.445,0,3.689,3.689,0,0,0,.7-2.481,3.611,3.611,0,0,0-.717-2.436,2.217,2.217,0,0,0-1.727-.82,2.152,2.152,0,0,0-1.69.808,3.586,3.586,0,0,0-.7,2.4Zm-1.234,5.286,1.45.215a1.381,1.381,0,0,0,.505.978,2.485,2.485,0,0,0,1.516.414,2.666,2.666,0,0,0,1.6-.414,2.036,2.036,0,0,0,.761-1.16,9.471,9.471,0,0,0,.107-1.914,3.065,3.065,0,0,1-2.435,1.152,3.321,3.321,0,0,1-2.808-1.309,5.041,5.041,0,0,1-.995-3.14,5.834,5.834,0,0,1,.456-2.324,3.637,3.637,0,0,1,1.32-1.644,3.563,3.563,0,0,1,2.034-.58,3.153,3.153,0,0,1,2.568,1.259v-1.06h1.376v7.6a7.218,7.218,0,0,1-.419,2.912,3.055,3.055,0,0,1-1.325,1.354,4.582,4.582,0,0,1-2.232.5,4.214,4.214,0,0,1-2.544-.708A2.4,2.4,0,0,1,324.792,183.42Z" transform="translate(-201.327 -170.546)" fill-rule="evenodd"/>
    <path id="Path_35" data-name="Path 35" d="M345.765,181.327V169.183h1.607v6.023l6.031-6.023h2.179l-5.094,4.921,5.318,7.224h-2.121l-4.324-6.147-1.988,1.938v4.209Z" transform="translate(-207.754 -169.183)" fill-rule="evenodd"/>
    <path id="Path_36" data-name="Path 36" d="M362.538,178.292a3.748,3.748,0,0,0,.737,2.531,2.455,2.455,0,0,0,3.7,0,3.835,3.835,0,0,0,.737-2.576,3.638,3.638,0,0,0-.742-2.473,2.457,2.457,0,0,0-3.7,0,3.728,3.728,0,0,0-.737,2.526Zm-1.533,0a4.535,4.535,0,0,1,1.359-3.621,4.1,4.1,0,0,1,2.767-.977,3.947,3.947,0,0,1,2.965,1.189,4.519,4.519,0,0,1,1.152,3.284,5.819,5.819,0,0,1-.51,2.672,3.6,3.6,0,0,1-1.482,1.512,4.311,4.311,0,0,1-2.124.539,3.955,3.955,0,0,1-2.987-1.185A4.732,4.732,0,0,1,361.006,178.292Z" transform="translate(-212.358 -170.546)" fill-rule="evenodd"/>
    <path id="Path_37" data-name="Path 37" d="M375.322,182.69v-8.8h1.342v1.251a3.163,3.163,0,0,1,2.8-1.449,3.66,3.66,0,0,1,1.461.286,2.3,2.3,0,0,1,1,.749,2.871,2.871,0,0,1,.464,1.1,8.548,8.548,0,0,1,.083,1.449v5.41H380.98v-5.351a4.022,4.022,0,0,0-.174-1.363,1.431,1.431,0,0,0-.618-.72,1.959,1.959,0,0,0-1.039-.27,2.414,2.414,0,0,0-1.645.605,2.983,2.983,0,0,0-.692,2.295v4.8Z" transform="translate(-216.683 -170.546)" fill-rule="evenodd"/>
    <path id="Path_38" data-name="Path 38" d="M389.555,178.134a3.818,3.818,0,0,0,.687,2.527,2.268,2.268,0,0,0,3.446,0,3.69,3.69,0,0,0,.7-2.481,3.61,3.61,0,0,0-.717-2.436,2.216,2.216,0,0,0-1.727-.82,2.155,2.155,0,0,0-1.69.808,3.586,3.586,0,0,0-.7,2.4Zm-1.234,5.286,1.45.215a1.378,1.378,0,0,0,.5.978,2.487,2.487,0,0,0,1.516.414,2.666,2.666,0,0,0,1.6-.414,2.04,2.04,0,0,0,.762-1.16,9.511,9.511,0,0,0,.107-1.914,3.066,3.066,0,0,1-2.436,1.152,3.321,3.321,0,0,1-2.808-1.309,5.041,5.041,0,0,1-.994-3.14,5.837,5.837,0,0,1,.456-2.324,3.642,3.642,0,0,1,1.32-1.644,3.564,3.564,0,0,1,2.034-.58,3.153,3.153,0,0,1,2.568,1.259v-1.06h1.375v7.6a7.219,7.219,0,0,1-.418,2.912,3.06,3.06,0,0,1-1.326,1.354,4.58,4.58,0,0,1-2.232.5,4.211,4.211,0,0,1-2.543-.708A2.393,2.393,0,0,1,388.321,183.42Z" transform="translate(-220.521 -170.546)" fill-rule="evenodd"/>
  </g>
  <g id="Group_3" data-name="Group 3" transform="translate(89.057 25.553)">
    <path id="Path_39" data-name="Path 39" d="M151.511,150.434h4.117l-1.267-3.364q-.579-1.533-.861-2.518a15.464,15.464,0,0,1-.655,2.319l-1.334,3.563Zm-3.5,4.987,4.664-12.144H154.4l4.97,12.144h-1.831l-1.417-3.679h-5.078l-1.334,3.679Z" transform="translate(-148.006 -143.277)" fill-rule="evenodd"/>
    <path id="Path_40" data-name="Path 40" d="M165.836,156.784v-8.8h1.342v1.334a3.629,3.629,0,0,1,.948-1.234,1.656,1.656,0,0,1,.957-.3,2.91,2.91,0,0,1,1.533.481l-.514,1.383a2.137,2.137,0,0,0-1.094-.322,1.419,1.419,0,0,0-.878.294,1.6,1.6,0,0,0-.555.816,5.817,5.817,0,0,0-.248,1.74v4.606Z" transform="translate(-153.393 -144.639)" fill-rule="evenodd"/>
    <path id="Path_41" data-name="Path 41" d="M176.856,154.206l.216,1.317a5.569,5.569,0,0,1-1.127.133,2.544,2.544,0,0,1-1.259-.258,1.437,1.437,0,0,1-.629-.674,5.344,5.344,0,0,1-.182-1.761V147.9H172.78v-1.16h1.094v-2.179l1.482-.894v3.073h1.5v1.16h-1.5v5.145a2.605,2.605,0,0,0,.079.82.625.625,0,0,0,.257.29.991.991,0,0,0,.509.108A4.9,4.9,0,0,0,176.856,154.206Z" transform="translate(-155.491 -143.395)" fill-rule="evenodd"/>
    <path id="Path_42" data-name="Path 42" d="M179.855,154.158l1.475-.232a2.062,2.062,0,0,0,.692,1.358,2.41,2.41,0,0,0,1.586.472,2.329,2.329,0,0,0,1.524-.419,1.251,1.251,0,0,0,.5-.981.906.906,0,0,0-.439-.8,6.482,6.482,0,0,0-1.524-.505,13.9,13.9,0,0,1-2.274-.717,2.171,2.171,0,0,1-1.288-2.017,2.26,2.26,0,0,1,.269-1.089,2.4,2.4,0,0,1,.733-.833,3.086,3.086,0,0,1,.948-.435,4.514,4.514,0,0,1,1.288-.178,5.087,5.087,0,0,1,1.818.3,2.477,2.477,0,0,1,1.156.807,3.163,3.163,0,0,1,.513,1.363l-1.458.2a1.593,1.593,0,0,0-.576-1.06,2.1,2.1,0,0,0-1.345-.382,2.437,2.437,0,0,0-1.467.34.988.988,0,0,0-.439.8.822.822,0,0,0,.183.522,1.312,1.312,0,0,0,.572.4q.223.084,1.316.381a18.275,18.275,0,0,1,2.208.692,2.238,2.238,0,0,1,.982.782,2.186,2.186,0,0,1,.356,1.276,2.5,2.5,0,0,1-.435,1.4,2.814,2.814,0,0,1-1.255,1.019,4.577,4.577,0,0,1-1.856.36A4.13,4.13,0,0,1,181,156.27,3.309,3.309,0,0,1,179.855,154.158Z" transform="translate(-157.628 -144.639)" fill-rule="evenodd"/>
    <path id="Path_43" data-name="Path 43" d="M200.779,156.87l-2.692-8.8h1.541l1.4,5.078.522,1.889q.033-.14.456-1.814l1.4-5.153h1.533l1.318,5.1.439,1.682.505-1.7,1.507-5.087h1.45l-2.75,8.8h-1.55l-1.4-5.269-.34-1.5-1.781,6.768Z" transform="translate(-163.137 -144.725)" fill-rule="evenodd"/>
    <path id="Path_44" data-name="Path 44" d="M217.186,146.623h1.491v8.8h-1.491v-8.8Zm0-3.346h1.491v1.715h-1.491Z" transform="translate(-168.907 -143.277)" fill-rule="evenodd"/>
    <path id="Path_45" data-name="Path 45" d="M225.477,154.206l.216,1.317a5.57,5.57,0,0,1-1.127.133,2.544,2.544,0,0,1-1.259-.258,1.437,1.437,0,0,1-.629-.674,5.345,5.345,0,0,1-.182-1.761V147.9H221.4v-1.16h1.094v-2.179l1.482-.894v3.073h1.5v1.16h-1.5v5.145a2.611,2.611,0,0,0,.078.82.625.625,0,0,0,.257.29,1,1,0,0,0,.51.108A4.889,4.889,0,0,0,225.477,154.206Z" transform="translate(-170.18 -143.395)" fill-rule="evenodd"/>
    <path id="Path_46" data-name="Path 46" d="M229.33,155.421V143.277h1.491v4.357a3.33,3.33,0,0,1,2.635-1.21,3.551,3.551,0,0,1,1.7.386,2.259,2.259,0,0,1,1.031,1.064,4.9,4.9,0,0,1,.311,1.971v5.575H235v-5.575a2.305,2.305,0,0,0-.484-1.627,1.8,1.8,0,0,0-1.371-.509,2.421,2.421,0,0,0-1.247.343,1.947,1.947,0,0,0-.833.932,4.288,4.288,0,0,0-.248,1.624v4.813Z" transform="translate(-172.576 -143.277)" fill-rule="evenodd"/>
    <path id="Path_47" data-name="Path 47" d="M252.5,154.206l.216,1.317a5.565,5.565,0,0,1-1.127.133,2.539,2.539,0,0,1-1.258-.258,1.43,1.43,0,0,1-.63-.674,5.318,5.318,0,0,1-.183-1.761V147.9H248.43v-1.16h1.093v-2.179l1.483-.894v3.073h1.5v1.16h-1.5v5.145a2.612,2.612,0,0,0,.078.82.625.625,0,0,0,.257.29.992.992,0,0,0,.509.108A4.888,4.888,0,0,0,252.5,154.206Z" transform="translate(-178.346 -143.395)" fill-rule="evenodd"/>
    <path id="Path_48" data-name="Path 48" d="M256.359,155.421V143.277h1.491v4.357a3.33,3.33,0,0,1,2.634-1.21,3.549,3.549,0,0,1,1.7.386,2.261,2.261,0,0,1,1.032,1.064,4.913,4.913,0,0,1,.311,1.971v5.575h-1.491v-5.575a2.305,2.305,0,0,0-.484-1.627,1.8,1.8,0,0,0-1.371-.509,2.42,2.42,0,0,0-1.247.343,1.948,1.948,0,0,0-.833.932,4.286,4.286,0,0,0-.248,1.624v4.813Z" transform="translate(-180.742 -143.277)" fill-rule="evenodd"/>
    <path id="Path_49" data-name="Path 49" d="M270.79,151.54H275.7a2.982,2.982,0,0,0-.563-1.665,2.286,2.286,0,0,0-1.847-.861,2.369,2.369,0,0,0-1.728.687,2.717,2.717,0,0,0-.774,1.839Zm4.9,2.41,1.541.191a3.756,3.756,0,0,1-1.35,2.1,4.573,4.573,0,0,1-5.579-.443,4.644,4.644,0,0,1-1.13-3.335,4.863,4.863,0,0,1,1.142-3.445,3.869,3.869,0,0,1,2.966-1.226,3.759,3.759,0,0,1,2.883,1.2,4.774,4.774,0,0,1,1.119,3.38c0,.088,0,.221-.009.4h-6.561a3.382,3.382,0,0,0,.82,2.22,2.441,2.441,0,0,0,1.84.77,2.28,2.28,0,0,0,1.4-.431A2.855,2.855,0,0,0,275.686,153.951Z" transform="translate(-184.612 -144.64)" fill-rule="evenodd"/>
    <path id="Path_50" data-name="Path 50" d="M292.033,153.988h2.593a6.28,6.28,0,0,0,1.884-.224,2.7,2.7,0,0,0,1.09-.63,3.842,3.842,0,0,0,.89-1.536,7.529,7.529,0,0,0,.32-2.341,5.653,5.653,0,0,0-.626-2.928,3.147,3.147,0,0,0-1.52-1.371,6.266,6.266,0,0,0-2.079-.249h-2.552v9.278Zm-1.607,1.433V143.277h4.184a10.111,10.111,0,0,1,2.162.174,4.111,4.111,0,0,1,1.781.869,4.96,4.96,0,0,1,1.437,2.076,8.149,8.149,0,0,1,.477,2.887,8.5,8.5,0,0,1-.323,2.452,5.956,5.956,0,0,1-.829,1.769,4.413,4.413,0,0,1-1.105,1.1,4.529,4.529,0,0,1-1.45.608,8.26,8.26,0,0,1-1.951.207Z" transform="translate(-191.034 -143.277)" fill-rule="evenodd"/>
    <path id="Path_51" data-name="Path 51" d="M307.721,146.623h1.491v8.8h-1.491v-8.8Zm0-3.346h1.491v1.715h-1.491Z" transform="translate(-196.26 -143.277)" fill-rule="evenodd"/>
    <path id="Path_52" data-name="Path 52" d="M312.255,154.158l1.475-.232a2.062,2.062,0,0,0,.692,1.358,2.41,2.41,0,0,0,1.587.472,2.326,2.326,0,0,0,1.523-.419,1.25,1.25,0,0,0,.5-.981.906.906,0,0,0-.44-.8,6.457,6.457,0,0,0-1.523-.505,13.916,13.916,0,0,1-2.274-.717,2.171,2.171,0,0,1-1.288-2.017,2.268,2.268,0,0,1,.269-1.089,2.4,2.4,0,0,1,.733-.833,3.081,3.081,0,0,1,.948-.435,4.517,4.517,0,0,1,1.288-.178,5.094,5.094,0,0,1,1.819.3,2.476,2.476,0,0,1,1.156.807,3.154,3.154,0,0,1,.514,1.363l-1.458.2a1.593,1.593,0,0,0-.577-1.06,2.1,2.1,0,0,0-1.345-.382,2.436,2.436,0,0,0-1.466.34.988.988,0,0,0-.439.8.826.826,0,0,0,.182.522,1.32,1.32,0,0,0,.572.4q.224.084,1.317.381a18.263,18.263,0,0,1,2.207.692,2.234,2.234,0,0,1,.982.782,2.181,2.181,0,0,1,.357,1.276,2.506,2.506,0,0,1-.435,1.4,2.806,2.806,0,0,1-1.255,1.019,4.571,4.571,0,0,1-1.856.36,4.131,4.131,0,0,1-2.614-.713A3.312,3.312,0,0,1,312.255,154.158Z" transform="translate(-197.629 -144.639)" fill-rule="evenodd"/>
    <path id="Path_53" data-name="Path 53" d="M330.663,152.369a10.975,10.975,0,0,1-2.436.563,5.666,5.666,0,0,0-1.3.3,1.3,1.3,0,0,0-.588.485,1.318,1.318,0,0,0,.244,1.7,1.939,1.939,0,0,0,1.321.4,3.075,3.075,0,0,0,1.533-.377,2.326,2.326,0,0,0,.986-1.031,3.608,3.608,0,0,0,.24-1.491v-.546Zm.124,3.33a5.531,5.531,0,0,1-1.595.994,4.609,4.609,0,0,1-1.644.29,3.2,3.2,0,0,1-2.228-.708,2.339,2.339,0,0,1-.779-1.81,2.408,2.408,0,0,1,.294-1.181,2.439,2.439,0,0,1,.77-.857,3.626,3.626,0,0,1,1.073-.489,10.822,10.822,0,0,1,1.325-.223,13.576,13.576,0,0,0,2.66-.514q.008-.307.008-.389a1.645,1.645,0,0,0-.423-1.284,2.5,2.5,0,0,0-1.7-.505,2.631,2.631,0,0,0-1.554.369,2.247,2.247,0,0,0-.741,1.3l-1.458-.2a3.624,3.624,0,0,1,.654-1.512,2.875,2.875,0,0,1,1.318-.887,5.889,5.889,0,0,1,2-.311,5.288,5.288,0,0,1,1.831.265,2.421,2.421,0,0,1,1.036.667,2.355,2.355,0,0,1,.464,1.015,8.516,8.516,0,0,1,.074,1.375V153.1a21.289,21.289,0,0,0,.095,2.63,3.317,3.317,0,0,0,.378,1.056h-1.558A3.148,3.148,0,0,1,330.787,155.7Z" transform="translate(-201.341 -144.639)" fill-rule="evenodd"/>
    <path id="Path_54" data-name="Path 54" d="M340.14,150.956a4.572,4.572,0,0,0,.431,2.287,2.131,2.131,0,0,0,3.6.3,3.857,3.857,0,0,0,.712-2.531,3.927,3.927,0,0,0-.684-2.542,2.08,2.08,0,0,0-1.652-.821,2.146,2.146,0,0,0-1.69.849,3.726,3.726,0,0,0-.713,2.456Zm.017,4.466h-1.383V143.277h1.491v4.332a2.95,2.95,0,0,1,2.411-1.184,3.7,3.7,0,0,1,1.536.327,3.141,3.141,0,0,1,1.193.92,4.445,4.445,0,0,1,.733,1.429,5.881,5.881,0,0,1,.265,1.789,5.025,5.025,0,0,1-1.119,3.5,3.5,3.5,0,0,1-2.684,1.234,2.8,2.8,0,0,1-2.443-1.3Z" transform="translate(-205.641 -143.277)" fill-rule="evenodd"/>
    <rect id="Rectangle_3" data-name="Rectangle 3" width="1.491" height="12.145" transform="translate(142.543)"/>
    <path id="Path_55" data-name="Path 55" d="M358.618,151.54h4.912a2.982,2.982,0,0,0-.563-1.665,2.287,2.287,0,0,0-1.848-.861,2.369,2.369,0,0,0-1.727.687,2.718,2.718,0,0,0-.774,1.839Zm4.9,2.41,1.541.191a3.756,3.756,0,0,1-1.35,2.1,4.573,4.573,0,0,1-5.579-.443,4.644,4.644,0,0,1-1.13-3.335,4.86,4.86,0,0,1,1.142-3.445,3.868,3.868,0,0,1,2.965-1.226,3.761,3.761,0,0,1,2.884,1.2,4.774,4.774,0,0,1,1.118,3.38c0,.088,0,.221-.008.4h-6.561a3.382,3.382,0,0,0,.82,2.22,2.44,2.44,0,0,0,1.839.77,2.278,2.278,0,0,0,1.4-.431A2.86,2.86,0,0,0,363.514,153.951Z" transform="translate(-211.147 -144.64)" fill-rule="evenodd"/>
    <path id="Path_56" data-name="Path 56" d="M371.988,151.03a3.818,3.818,0,0,0,.713,2.527,2.147,2.147,0,0,0,1.681.837,2.109,2.109,0,0,0,1.661-.8,3.688,3.688,0,0,0,.684-2.439,4.132,4.132,0,0,0-.7-2.651,2.139,2.139,0,0,0-1.715-.845,2.069,2.069,0,0,0-1.662.812,4.012,4.012,0,0,0-.666,2.56Zm4.713,4.39v-1.11a2.736,2.736,0,0,1-2.461,1.309,3.455,3.455,0,0,1-1.935-.579,3.819,3.819,0,0,1-1.366-1.62,5.6,5.6,0,0,1-.484-2.39,6.259,6.259,0,0,1,.439-2.39A3.465,3.465,0,0,1,372.211,147a3.525,3.525,0,0,1,1.963-.571,2.933,2.933,0,0,1,1.416.335,2.969,2.969,0,0,1,1.011.874v-4.357h1.482v12.144Z" transform="translate(-215.213 -143.277)" fill-rule="evenodd"/>
  </g>
</svg>
